ffmpeg version 3.4.8-0ubuntu0.2 Copyright (c) 2000-2020 the FFmpeg developers
  built with gcc 7 (Ubuntu 7.5.0-3ubuntu1~18.04)
  configuration: --prefix=/usr --extra-version=0ubuntu0.2 --toolchain=hardened --libdir=/usr/lib/x86_64-linux-gnu --incdir=/usr/include/x86_64-linux-gnu --enable-gpl --disable-stripping --enable-avresample --enable-avisynth --enable-gnutls --enable-ladspa --enable-libass --enable-libbluray --enable-libbs2b --enable-libcaca --enable-libcdio --enable-libflite --enable-libfontconfig --enable-libfreetype --enable-libfribidi --enable-libgme --enable-libgsm --enable-libmp3lame --enable-libmysofa --enable-libopenjpeg --enable-libopenmpt --enable-libopus --enable-libpulse --enable-librubberband --enable-librsvg --enable-libshine --enable-libsnappy --enable-libsoxr --enable-libspeex --enable-libssh --enable-libtheora --enable-libtwolame --enable-libvorbis --enable-libvpx --enable-libwavpack --enable-libwebp --enable-libx265 --enable-libxml2 --enable-libxvid --enable-libzmq --enable-libzvbi --enable-omx --enable-openal --enable-opengl --enable-sdl2 --enable-libdc1394 --enable-libdrm --enable-libiec61883 --enable-chromaprint --enable-frei0r --enable-libopencv --enable-libx264 --enable-shared
  libavutil      55. 78.100 / 55. 78.100
  libavcodec     57.107.100 / 57.107.100
  libavformat    57. 83.100 / 57. 83.100
  libavdevice    57. 10.100 / 57. 10.100
  libavfilter     6.107.100 /  6.107.100
  libavresample   3.  7.  0 /  3.  7.  0
  libswscale      4.  8.100 /  4.  8.100
  libswresample   2.  9.100 /  2.  9.100
  libpostproc    54.  7.100 / 54.  7.100
[rawvideo @ 0x564a53f8fa20] Estimating duration from bitrate, this may be inaccurate
Input #0, rawvideo, from '../../SVC-Encoder-20220109T061506Z-001/SVC-Encoder/Dataset/RollerCoaster/6f_2x2/tile_yuv/f1_t2_480x480.yuv':
  Duration: 00:00:10.00, start: 0.000000, bitrate: 82944 kb/s
    Stream #0:0: Video: rawvideo (I420 / 0x30323449), yuv420p, 480x480, 82944 kb/s, 30 tbr, 30 tbn, 30 tbc
Stream mapping:
  Stream #0:0 -> #0:0 (rawvideo (native) -> h264 (libx264))
Press [q] to stop, [?] for help
[libx264 @ 0x564a53f9cc60] using cpu capabilities: MMX2 SSE2Fast LZCNT SSSE3 SSE4.2 AVX
[libx264 @ 0x564a53f9cc60] profile High, level 3.0
Output #0, rawvideo, to 'RollerCoaster_f1_t2_480x480_x264_QP_24.h264':
  Metadata:
    encoder         : Lavf57.83.100
    Stream #0:0: Video: h264 (libx264), yuv420p, 480x480, q=-1--1, 30 fps, 30 tbn, 30 tbc
    Metadata:
      encoder         : Lavc57.107.100 libx264
    Side data:
      cpb: bitrate max/min/avg: 0/0/0 buffer size: 0 vbv_delay: -1
frame=   89 fps=0.0 q=30.0 PSNR=Y:nan U:nan V:nan *:nan size=     214kB time=00:00:01.53 bitrate=1142.8kbits/s speed=3.03x    frame=  141 fps=140 q=30.0 PSNR=Y:nan U:nan V:nan *:nan size=     256kB time=00:00:03.26 bitrate= 642.0kbits/s speed=3.24x    frame=  191 fps=127 q=30.0 PSNR=Y:nan U:nan V:nan *:nan size=     512kB time=00:00:04.93 bitrate= 850.2kbits/s speed=3.27x    frame=  240 fps=119 q=30.0 PSNR=Y:nan U:nan V:nan *:nan size=     768kB time=00:00:06.56 bitrate= 958.1kbits/s speed=3.27x    frame=  293 fps=115 q=30.0 PSNR=Y:nan U:nan V:nan *:nan size=    1024kB time=00:00:08.33 bitrate=1006.6kbits/s speed=3.28x    frame=  300 fps=101 q=30.0 LPSNR=Y:inf U:inf V:inf *:inf size=    1195kB time=00:00:09.93 bitrate= 985.2kbits/s speed=3.34x    
video:1195kB audio:0kB subtitle:0kB other streams:0kB global headers:0kB muxing overhead: 0.000000%
[libx264 @ 0x564a53f9cc60] frame I:2     Avg QP:22.27  size: 38688  PSNR Mean Y:42.50 U:47.21 V:48.15 Avg:43.64 Global:43.59
[libx264 @ 0x564a53f9cc60] frame P:76    Avg QP:24.16  size: 10308  PSNR Mean Y:40.45 U:46.55 V:47.37 Avg:41.75 Global:41.68
[libx264 @ 0x564a53f9cc60] frame B:222   Avg QP:29.45  size:  1633  PSNR Mean Y:39.06 U:46.23 V:47.01 Avg:40.46 Global:40.43
[libx264 @ 0x564a53f9cc60] consecutive B-frames:  1.3%  0.0%  0.0% 98.7%
[libx264 @ 0x564a53f9cc60] mb I  I16..4:  5.3% 69.2% 25.4%
[libx264 @ 0x564a53f9cc60] mb P  I16..4:  0.3%  2.8%  0.7%  P16..4: 34.1% 31.2% 18.8%  0.0%  0.0%    skip:12.1%
[libx264 @ 0x564a53f9cc60] mb B  I16..4:  0.0%  0.3%  0.1%  B16..8: 39.0% 12.8%  2.1%  direct: 1.7%  skip:44.0%  L0:37.5% L1:46.1% BI:16.4%
[libx264 @ 0x564a53f9cc60] 8x8 transform intra:72.2% inter:63.3%
[libx264 @ 0x564a53f9cc60] coded y,uvDC,uvAC intra: 84.3% 85.4% 43.9% inter: 18.7% 10.3% 0.3%
[libx264 @ 0x564a53f9cc60] i16 v,h,dc,p: 31% 20% 26% 23%
[libx264 @ 0x564a53f9cc60] i8 v,h,dc,ddl,ddr,vr,hd,vl,hu: 14% 11% 14% 12%  7% 12%  6% 10% 14%
[libx264 @ 0x564a53f9cc60] i4 v,h,dc,ddl,ddr,vr,hd,vl,hu: 22% 15% 14%  9%  7%  9%  6% 10%  8%
[libx264 @ 0x564a53f9cc60] i8c dc,h,v,p: 46% 12% 22% 19%
[libx264 @ 0x564a53f9cc60] Weighted P-Frames: Y:0.0% UV:0.0%
[libx264 @ 0x564a53f9cc60] ref P L0: 55.5% 19.3% 19.7%  5.5%
[libx264 @ 0x564a53f9cc60] ref B L0: 86.9% 11.4%  1.7%
[libx264 @ 0x564a53f9cc60] ref B L1: 90.3%  9.7%
[libx264 @ 0x564a53f9cc60] PSNR Mean Y:39.437 U:46.319 V:47.109 Avg:40.803 Global:40.732 kb/s:978.62
